# xmcd CD database file
#
# Track frame offsets:
#	150
#	16169
#	34222
#	49480
#	72059
#	90923
#	109339
#	123408
#	141609
#	156643
#
# Disc length: 2425 seconds
#
# Revision: 3
# Processed by: cddbd v1.5.2PL0 Copyright (c) Steve Scherf et al.
# Submitted via: jetAudio 7
#
DISCID=8e09770a
DTITLE=David Gogo - Soul-Bender
DYEAR=2011
DGENRE=Blues
TTITLE0=Please Find My Baby
TTITLE1=Slow It Down
TTITLE2=Was It Love
TTITLE3=Time Is Killing Me
TTITLE4=I Found A Love
TTITLE5=The Changeling
TTITLE6=Gettin' Old
TTITLE7=The Way You Make Me Feel
TTITLE8=Do You Know How It Feels?
TTITLE9=Whiskey Train
EXTD=
EXTT0=
EXTT1=
EXTT2=
EXTT3=
EXTT4=
EXTT5=
EXTT6=
EXTT7=
EXTT8=
EXTT9=
PLAYORDER=
